<svg xmlns="http://www.w3.org/2000/svg" id="Layer_1" data-name="Layer 1" viewBox="-0.01 1304 410.2 481">
  <defs>
    <style>
      .cls-1 {
        fill: #fff;
      }

      .cls-2 {
        fill: #24a3bf;
      }

      .cls-3 {
        fill: #f2bc1b;
      }

      .cls-4 {
        fill: #db5c40;
      }

      .cls-5 {
        fill: #0d43e4;
      }

      .cls-6 {
        fill: #fff;
      }
    </style>
  </defs>
    <g>
      <path d="M316.66,1358.38c0-3.39-.31-6.74-.92-10.01,.12,.12,.24,.23,.35,.35,.24,.23,.47,.46,.7,.7,.24,.23,.47,.47,.7,.7,.24,.23,.47,.46,.7,.7,.24,.23,.47,.46,.7,.7,.24,.23,.47,.47,.7,.7,.24,.23,.47,.47,.7,.7,.24,.23,.47,.46,.7,.7,.24,.23,.47,.46,.7,.7,.24,.23,.47,.46,.7,.7,.24,.23,.47,.46,.7,.7,.24,.23,.47,.46,.7,.7,.24,.23,.47,.46,.7,.7,.24,.23,.47,.47,.7,.7,.24,.23,.47,.46,.7,.7,.24,.23,.47,.46,.7,.7,.24,.23,.47,.46,.7,.7,.24,.23,.47,.46,.7,.7,.24,.23,.47,.47,.7,.7,.24,.23,.47,.46,.7,.7,8.33,8.15,13.5,19.51,13.5,32.08v67.41c-.36,0-.71-.01-1.07-.01h-25.19v-103.15Zm-167.82,262.28h-7.66c-8.17,0-16.14,2.85-22.45,8.03l-89.47,73.44c-1.85,1.52-3.91,2.63-6.11,3.3,.11,.11,.22,.21,.33,.31,.22,.25,.46,.48,.7,.7,.22,.25,.45,.48,.7,.7,.22,.25,.46,.48,.7,.7,.22,.25,.45,.48,.7,.7,.22,.25,.45,.48,.7,.7,.22,.25,.46,.48,.7,.7,.22,.25,.45,.48,.7,.7,.22,.25,.46,.48,.7,.7,.22,.25,.46,.48,.7,.7,.22,.25,.46,.48,.7,.7,.22,.25,.46,.48,.7,.7,.22,.25,.46,.48,.7,.7,.22,.25,.45,.48,.7,.7,.22,.25,.45,.48,.7,.7,.22,.25,.46,.48,.7,.7,.22,.25,.46,.48,.7,.7,.22,.25,.45,.48,.7,.7,.22,.25,.45,.48,.7,.7,.22,.25,.46,.48,.7,.7,.22,.25,.46,.48,.7,.7,.22,.25,.45,.48,.7,.7,.22,.25,.46,.48,.7,.7,.22,.25,.46,.48,.7,.7,.22,.25,.46,.48,.7,.7,.22,.25,.45,.48,.7,.7,.22,.25,.45,.48,.7,.7,.22,.25,.46,.48,.7,.7,.22,.25,.46,.48,.7,.7,.22,.25,.45,.48,.7,.7,.22,.25,.46,.48,.7,.7,.22,.25,.46,.48,.7,.7,.22,.25,.46,.48,.7,.7,.22,.25,.46,.48,.7,.7,.22,.25,.45,.48,.7,.7,2.8,3.18,7.89,4.06,11.67,.96l89.47-73.44c.15-.12,.3-.24,.45-.36-.04-.74-.06-1.47-.06-2.22v-33.87Zm130,75.95h-87.92c-1.41,0-2.81-.07-4.19-.2,.14,.15,.29,.29,.44,.44,.23,.24,.46,.47,.7,.7,.23,.24,.46,.47,.7,.7,.23,.24,.46,.47,.7,.7,.23,.24,.46,.47,.7,.7,.23,.24,.46,.47,.7,.7,.23,.24,.46,.47,.7,.7,.23,.24,.46,.47,.7,.7,.23,.24,.46,.47,.7,.7,.23,.24,.46,.47,.7,.7,.23,.24,.46,.47,.7,.7,.23,.24,.46,.47,.7,.7,.23,.24,.46,.47,.7,.7,.23,.24,.46,.47,.7,.7,.23,.24,.46,.47,.7,.7,.23,.24,.46,.47,.7,.7,.23,.24,.46,.47,.7,.7,.23,.24,.46,.47,.7,.7,.23,.24,.46,.47,.7,.7,.23,.24,.46,.47,.7,.7,.23,.24,.46,.47,.7,.7,.23,.24,.46,.47,.7,.7,.23,.24,.46,.47,.7,.7,.23,.24,.46,.47,.7,.7,5.92,6.1,14.21,9.9,23.38,9.9h87.92c1.67,0,3.33,.14,4.97,.39l-26.07-21.4c-4.12-3.38-9.32-5.24-14.65-5.24Zm121.44-180.64c-.23-.24-.46-.47-.7-.7-.23-.24-.46-.47-.7-.7-.23-.24-.46-.47-.7-.7-.23-.24-.46-.47-.7-.7-.23-.24-.46-.47-.7-.7-.23-.24-.46-.47-.7-.7-.23-.24-.46-.47-.7-.7-.23-.24-.46-.47-.7-.7-.23-.24-.46-.47-.7-.7-.23-.24-.46-.47-.7-.7-.23-.24-.46-.47-.7-.7-.23-.24-.46-.47-.7-.7-.23-.24-.46-.47-.7-.7-.23-.24-.46-.47-.7-.7-.23-.24-.46-.47-.7-.7-.23-.24-.46-.47-.7-.7-.23-.24-.46-.47-.7-.7-.23-.24-.46-.47-.7-.7-.23-.24-.46-.47-.7-.7-.23-.24-.46-.47-.7-.7-.23-.24-.46-.47-.7-.7-.23-.24-.46-.47-.7-.7-.23-.24-.46-.47-.7-.7-.14-.15-.29-.29-.44-.44,.14,1.38,.2,2.78,.2,4.19v239.52c0,8.09-6.19,14.76-14.09,15.53l30.37,24.93c3.98,3.27,9.97,.44,9.97-4.72v-239.52c0-9.18-3.8-17.46-9.9-23.38Z"/>
      <path class="cls-2" d="M160.95,1667.36c-.05-.11-.09-.22-.14-.34,.05,.11,.09,.22,.14,.34Z"/>
      <path class="cls-2" d="M163.19,1671.66c-.1-.16-.2-.33-.3-.49,.1,.16,.2,.33,.3,.49Z"/>
      <path class="cls-2" d="M356.72,1474.62c.39,.2,.78,.41,1.16,.63-.38-.22-.77-.43-1.16-.63Z"/>
      <path class="cls-2" d="M355.32,1473.94c.41,.18,.81,.38,1.2,.58-.4-.2-.8-.39-1.2-.58Z"/>
      <path class="cls-2" d="M359.41,1476.16c.37,.24,.73,.48,1.09,.73-.36-.25-.72-.49-1.09-.73Z"/>
      <path class="cls-2" d="M344.59,1471.14c.5,.04,.99,.09,1.48,.16-.49-.06-.99-.12-1.48-.16Z"/>
      <path class="cls-2" d="M164.08,1673.01c-.12-.17-.24-.35-.35-.52,.12,.18,.23,.35,.35,.52Z"/>
      <path class="cls-2" d="M358.09,1475.36c.38,.22,.76,.45,1.13,.68-.37-.23-.75-.46-1.13-.68Z"/>
      <path class="cls-2" d="M162.38,1670.27c-.08-.15-.16-.3-.24-.44,.08,.15,.16,.3,.24,.44Z"/>
      <path class="cls-2" d="M347.8,1471.57c.47,.09,.94,.19,1.41,.29-.47-.11-.94-.21-1.41-.29Z"/>
      <path class="cls-2" d="M349.36,1471.9c.46,.11,.92,.23,1.37,.36-.45-.13-.91-.25-1.37-.36Z"/>
      <path class="cls-2" d="M350.9,1472.31c.45,.13,.89,.27,1.33,.41-.44-.15-.88-.29-1.33-.41Z"/>
      <path class="cls-2" d="M161.63,1668.83c-.06-.13-.13-.26-.19-.39,.06,.13,.12,.26,.19,.39Z"/>
      <path class="cls-2" d="M346.21,1471.32c.49,.07,.97,.14,1.45,.23-.48-.09-.96-.16-1.45-.23Z"/>
      <path class="cls-2" d="M165.02,1674.31c-.14-.18-.28-.36-.41-.55,.14,.18,.27,.37,.41,.55Z"/>
      <path class="cls-2" d="M353.88,1473.33c.42,.17,.83,.34,1.24,.52-.41-.18-.82-.36-1.24-.52Z"/>
      <path class="cls-2" d="M352.41,1472.78c.43,.15,.86,.31,1.28,.47-.42-.17-.85-.32-1.28-.47Z"/>
      <path class="cls-2" d="M360.68,1477.03c.36,.25,.71,.51,1.06,.78-.35-.27-.7-.53-1.06-.78Z"/>
      <path class="cls-2" d="M159,1661.13s-.01-.05-.02-.08c0,.03,.01,.05,.02,.08Z"/>
      <path class="cls-2" d="M364.22,1479.93c.33,.31,.65,.63,.97,.95-.32-.32-.64-.64-.97-.95Z"/>
      <path class="cls-2" d="M159.82,1664.3c-.02-.07-.04-.14-.06-.21,.02,.07,.04,.14,.06,.21Z"/>
      <path class="cls-2" d="M167.08,1676.74c-.21-.23-.42-.46-.62-.69,.2,.23,.41,.46,.62,.69Z"/>
      <path class="cls-2" d="M159.37,1662.73s-.02-.1-.04-.15c.01,.05,.02,.1,.04,.15Z"/>
      <path class="cls-2" d="M160.35,1665.85c-.03-.09-.07-.18-.1-.27,.03,.09,.06,.18,.1,.27Z"/>
      <path class="cls-2" d="M361.91,1477.94c.35,.27,.69,.55,1.03,.84-.34-.29-.68-.57-1.03-.84Z"/>
      <path class="cls-2" d="M342.96,1471.05c.51,.02,1.01,.05,1.51,.09-.5-.04-1.01-.07-1.51-.09Z"/>
      <path class="cls-2" d="M363.09,1478.91c.34,.29,.67,.59,1,.89-.33-.31-.66-.6-1-.89Z"/>
      <path class="cls-2" d="M166.02,1675.55c-.16-.19-.31-.37-.47-.56,.15,.19,.31,.38,.47,.56Z"/>
      <path class="cls-2" d="M158.71,1659.5s0-.01,0-.02c0,0,0,.01,0,.02Z"/>
      <path class="cls-2" d="M167.4,1677.08c.26,.27,.52,.54,.79,.8-.27-.26-.53-.53-.79-.8Z"/>
      <path d="M364.09,1479.81c-.33-.31-.66-.6-1-.89-.05-.04-.1-.09-.15-.13-.34-.29-.68-.57-1.03-.84-.06-.04-.11-.09-.17-.13-.35-.27-.7-.53-1.06-.78-.06-.04-.12-.09-.18-.13-.36-.25-.72-.49-1.09-.73-.06-.04-.13-.08-.19-.12-.37-.23-.75-.46-1.13-.68-.07-.04-.13-.08-.2-.11-.38-.22-.77-.43-1.16-.63-.07-.03-.13-.07-.2-.1-.4-.2-.8-.39-1.2-.58-.07-.03-.13-.06-.2-.09-.41-.18-.82-.36-1.24-.52-.06-.03-.13-.05-.19-.07-.42-.17-.85-.32-1.28-.47-.06-.02-.12-.04-.18-.06-.44-.15-.88-.29-1.33-.41-.06-.02-.11-.03-.17-.05-.45-.13-.91-.25-1.37-.36-.05-.01-.1-.02-.15-.04-.47-.11-.94-.21-1.41-.29-.05,0-.09-.02-.14-.03-.48-.09-.96-.16-1.45-.23-.04,0-.09-.01-.13-.02-.49-.06-.99-.12-1.48-.16-.04,0-.08,0-.12,0-.5-.04-1.01-.07-1.51-.09-.37-.01-.74-.03-1.11-.03h-25.19v95.26c0,14.53-5.66,28.18-15.92,38.45-10.27,10.27-23.93,15.93-38.45,15.93h-103.95v33.87c0,1.68,.13,3.34,.37,4.95,0,0,0,.01,0,.02,.08,.52,.17,1.03,.28,1.54,0,.03,.01,.05,.02,.08,.1,.49,.21,.97,.34,1.45,.01,.05,.02,.1,.04,.15,.12,.46,.25,.91,.39,1.36,.02,.07,.04,.14,.06,.21,.13,.43,.28,.85,.43,1.27,.03,.09,.06,.18,.1,.27,.15,.4,.3,.79,.46,1.17,.05,.11,.09,.22,.14,.34,.16,.36,.32,.72,.49,1.08,.06,.13,.12,.26,.19,.39,.16,.33,.33,.66,.51,.99,.08,.15,.16,.3,.24,.44,.17,.3,.34,.61,.52,.9,.1,.16,.2,.33,.3,.49,.17,.28,.35,.55,.53,.82,.12,.18,.23,.35,.35,.52,.17,.25,.35,.5,.53,.75,.14,.18,.27,.37,.41,.55,.18,.23,.36,.46,.54,.68,.15,.19,.31,.38,.47,.56,.14,.17,.29,.34,.44,.5,.2,.23,.41,.46,.62,.69,.1,.11,.21,.22,.32,.33,.26,.27,.52,.54,.79,.8,5.87,5.72,13.88,9.24,22.72,9.24h87.92c7.54,0,14.85,2.62,20.67,7.4l64.95,53.32c1.17,.96,2.52,1.4,3.84,1.4,3.15,0,6.13-2.48,6.13-6.11v-239.52c0-8.84-3.52-16.85-9.24-22.72-.32-.32-.64-.64-.97-.95-.04-.04-.09-.09-.13-.13Z"/>
      <path class="cls-3" d="M262.28,1313.49H54.37c-24.79,0-44.88,20.09-44.88,44.88v329.93c0,2.6,1.11,4.76,2.78,6.25,0,0,0,0-.01-.01-1.66-1.49-2.76-3.65-2.76-6.23v-329.93c0-24.79,20.09-44.88,44.88-44.88h207.91c12.57,0,23.94,5.17,32.08,13.5,.01,.01,.03,.03,.04,.04-8.15-8.35-19.53-13.54-32.12-13.54Z"/>
      <path d="M262.28,1313.5H54.38c-24.79,0-44.88,20.09-44.88,44.88v329.93c0,2.59,1.1,4.75,2.76,6.23,0,0,0,0,.01,.01,1.55,1.38,3.58,2.17,5.67,2.17,1.82,0,3.67-.6,5.29-1.92l89.47-73.44c8.03-6.59,18.09-10.19,28.48-10.19h121.11c24.79,0,44.88-20.09,44.88-44.88v-207.91c0-12.19-4.86-23.25-12.76-31.34-.01-.01-.03-.03-.04-.04-8.15-8.33-19.51-13.5-32.08-13.5Z"/>
      <path class="cls-1" d="M162.14,1669.82c-.17-.33-.34-.66-.51-.99,.16,.33,.33,.66,.51,.99Z"/>
      <path class="cls-1" d="M166.46,1676.06c-.15-.17-.29-.33-.44-.5,.14,.17,.29,.34,.44,.5Z"/>
      <path class="cls-1" d="M167.4,1677.08c-.11-.11-.21-.22-.32-.33,.1,.11,.21,.22,.32,.33Z"/>
      <path class="cls-1" d="M160.25,1665.57c-.15-.42-.3-.84-.43-1.27,.13,.43,.28,.85,.43,1.27Z"/>
      <path class="cls-1" d="M163.72,1672.48c-.18-.27-.36-.55-.53-.82,.17,.28,.35,.55,.53,.82Z"/>
      <path class="cls-1" d="M162.9,1671.17c-.18-.3-.35-.6-.52-.9,.17,.3,.34,.61,.52,.9Z"/>
      <path class="cls-1" d="M161.44,1668.44c-.17-.36-.33-.72-.49-1.08,.16,.36,.32,.72,.49,1.08Z"/>
      <path class="cls-1" d="M164.61,1673.76c-.18-.25-.36-.5-.53-.75,.17,.25,.35,.5,.53,.75Z"/>
      <path class="cls-1" d="M160.81,1667.02c-.16-.39-.32-.78-.46-1.17,.15,.4,.3,.79,.46,1.17Z"/>
      <path class="cls-1" d="M165.56,1674.99c-.18-.23-.36-.45-.54-.68,.18,.23,.36,.46,.54,.68Z"/>
      <path class="cls-1" d="M158.98,1661.05c-.1-.51-.2-1.02-.28-1.54,.08,.52,.17,1.03,.28,1.54Z"/>
      <path class="cls-1" d="M159.76,1664.09c-.14-.45-.27-.9-.39-1.36,.12,.46,.25,.91,.39,1.36Z"/>
      <path class="cls-1" d="M359.21,1476.04c.06,.04,.13,.08,.19,.12-.06-.04-.13-.08-.19-.12Z"/>
      <path class="cls-1" d="M357.89,1475.25c.07,.04,.13,.08,.2,.11-.07-.04-.13-.08-.2-.11Z"/>
      <path class="cls-1" d="M361.74,1477.81c.06,.04,.11,.09,.17,.13-.06-.04-.11-.09-.17-.13Z"/>
      <path class="cls-1" d="M383.72,1499.41c-.95-9.66-5.17-18.61-12.12-25.56-7.69-7.7-17.85-12.04-28.68-12.31-.36,0-.71-.01-1.07-.01h-25.19v-103.15c0-3.39-.31-6.74-.92-10.01-1.98-10.72-7.14-20.57-15.01-28.44-10.27-10.27-23.93-15.93-38.45-15.93H54.37c-14.52,0-28.18,5.66-38.45,15.93-10.27,10.27-15.93,23.92-15.93,38.45v329.93c0,4.99,1.98,9.6,5.58,12.99,3.36,3.17,7.76,4.92,12.37,4.92,1.79,0,3.53-.26,5.2-.78,2.2-.68,4.26-1.78,6.11-3.3l89.47-73.44c6.31-5.18,14.28-8.03,22.45-8.03h7.66v33.87c0,.74,.02,1.48,.06,2.22,.54,10.41,4.84,20.12,12.27,27.54,6.95,6.95,15.9,11.17,25.56,12.12,1.38,.14,2.78,.2,4.19,.2h87.92c5.33,0,10.53,1.86,14.65,5.24l26.07,21.4,38.88,31.92c2.79,2.29,6.29,3.55,9.86,3.55,.52,0,1.03-.03,1.54-.08,7.9-.77,14.09-7.44,14.09-15.53v-239.52c0-1.41-.07-2.81-.2-4.19Zm-242.55,111.76c-10.38,0-20.45,3.6-28.48,10.19l-89.47,73.44c-1.61,1.33-3.47,1.92-5.29,1.92-2.09,0-4.12-.79-5.67-2.17-1.67-1.49-2.78-3.65-2.78-6.25v-329.93c0-24.79,20.09-44.88,44.88-44.88h207.91c12.59,0,23.97,5.19,32.12,13.54,7.89,8.09,12.76,19.15,12.76,31.34v207.91c0,24.79-20.09,44.88-44.88,44.88h-121.11Zm233.26,131.95c0,3.63-2.98,6.11-6.13,6.11-1.32,0-2.67-.43-3.84-1.4l-64.95-53.32c-5.83-4.78-13.13-7.4-20.67-7.4h-87.92c-8.84,0-16.85-3.53-22.72-9.24-.27-.26-.53-.53-.79-.8-.11-.11-.21-.22-.32-.33-.21-.23-.42-.46-.62-.69-.15-.17-.29-.33-.44-.5-.16-.19-.31-.37-.47-.56-.18-.23-.36-.45-.54-.68-.14-.18-.28-.36-.41-.55-.18-.25-.36-.5-.53-.75-.12-.17-.24-.35-.35-.52-.18-.27-.36-.55-.53-.82-.1-.16-.2-.33-.3-.49-.18-.3-.35-.6-.52-.9-.08-.15-.16-.3-.24-.44-.17-.33-.34-.66-.51-.99-.06-.13-.13-.26-.19-.39-.17-.36-.33-.72-.49-1.08-.05-.11-.09-.22-.14-.34-.16-.39-.32-.78-.46-1.17-.03-.09-.07-.18-.1-.27-.15-.42-.3-.84-.43-1.27-.02-.07-.04-.14-.06-.21-.14-.45-.27-.9-.39-1.36-.01-.05-.02-.1-.04-.15-.12-.48-.23-.97-.34-1.45,0-.03-.01-.05-.02-.08-.1-.51-.2-1.02-.28-1.54,0,0,0-.01,0-.02-.25-1.61-.37-3.27-.37-4.95v-33.87h103.95c14.52,0,28.18-5.66,38.45-15.93,10.27-10.27,15.92-23.92,15.92-38.45v-95.26h25.19c.37,0,.74,.02,1.11,.03,.51,.02,1.01,.05,1.51,.09,.04,0,.08,0,.12,0,.5,.04,.99,.09,1.48,.16,.04,0,.09,.01,.13,.02,.49,.07,.97,.14,1.45,.23,.05,0,.09,.02,.14,.03,.47,.09,.94,.19,1.41,.29,.05,.01,.1,.02,.15,.04,.46,.11,.92,.23,1.37,.36,.06,.02,.11,.03,.17,.05,.45,.13,.89,.27,1.33,.41,.06,.02,.12,.04,.18,.06,.43,.15,.86,.31,1.28,.47,.06,.02,.13,.05,.19,.07,.42,.17,.83,.34,1.24,.52,.07,.03,.13,.06,.2,.09,.41,.18,.81,.38,1.2,.58,.07,.03,.13,.07,.2,.1,.39,.2,.78,.41,1.16,.63,.07,.04,.13,.08,.2,.11,.38,.22,.76,.45,1.13,.68,.06,.04,.13,.08,.19,.12,.37,.24,.73,.48,1.09,.73,.06,.04,.12,.09,.18,.13,.36,.25,.71,.51,1.06,.78,.06,.04,.11,.09,.17,.13,.35,.27,.69,.55,1.03,.84,.05,.04,.1,.09,.15,.13,.34,.29,.67,.59,1,.89,.04,.04,.09,.09,.13,.13,.33,.31,.65,.63,.97,.95,5.71,5.87,9.24,13.88,9.24,22.72v239.52Z"/>
      <path class="cls-1" d="M356.52,1474.52c.07,.03,.13,.07,.2,.1-.07-.03-.13-.07-.2-.1Z"/>
      <path class="cls-1" d="M364.09,1479.81s.09,.09,.13,.13c-.04-.04-.09-.09-.13-.13Z"/>
      <path class="cls-1" d="M362.94,1478.78c.05,.04,.1,.09,.15,.13-.05-.04-.1-.09-.15-.13Z"/>
      <path class="cls-1" d="M360.5,1476.89c.06,.04,.12,.09,.18,.13-.06-.04-.12-.09-.18-.13Z"/>
      <path class="cls-1" d="M344.47,1471.14s.08,0,.12,0c-.04,0-.08,0-.12,0Z"/>
      <path class="cls-1" d="M347.65,1471.55s.09,.02,.14,.03c-.05,0-.09-.02-.14-.03Z"/>
      <path class="cls-1" d="M355.13,1473.85c.07,.03,.13,.06,.2,.09-.07-.03-.13-.06-.2-.09Z"/>
      <path class="cls-1" d="M159.34,1662.58c-.12-.48-.24-.97-.34-1.45,.1,.49,.21,.97,.34,1.45Z"/>
      <path class="cls-1" d="M346.08,1471.3s.09,.01,.13,.02c-.04,0-.09-.01-.13-.02Z"/>
      <path class="cls-1" d="M353.69,1473.25c.06,.02,.13,.05,.19,.07-.06-.03-.13-.05-.19-.07Z"/>
      <path class="cls-1" d="M349.21,1471.87c.05,.01,.1,.02,.15,.04-.05-.01-.1-.02-.15-.04Z"/>
      <path class="cls-1" d="M352.23,1472.72c.06,.02,.12,.04,.18,.06-.06-.02-.12-.04-.18-.06Z"/>
      <path class="cls-1" d="M350.73,1472.26c.06,.02,.11,.03,.17,.05-.06-.02-.11-.03-.17-.05Z"/>
    </g>
</svg>