<svg xmlns="http://www.w3.org/2000/svg" id="Layer_1" data-name="Layer 1" viewBox="53.57 0 1005.55 1179.13">
  <defs>
    <style>
      .cls-1 {
        fill: transparent;
      }

      .cls-2 {
        fill: #9750DD;
      }

      .cls-3 {
        fill: #0072F5;
      }

      .cls-4 {
        fill: #db5c40;
      }

      .cls-5 {
        fill: #0d43e4;
      }

      .cls-6 {
        fill: #fff;
      }
    </style>
  </defs>
  <g>
    <path d="M829.88,133.31c0-8.32-.77-16.52-2.25-24.53,.29,.29,.58,.58,.87,.87,.58,.57,1.15,1.14,1.72,1.72,.58,.57,1.15,1.14,1.72,1.72,.58,.57,1.15,1.14,1.72,1.72,.58,.57,1.15,1.14,1.72,1.72,.58,.57,1.15,1.14,1.72,1.72,.58,.57,1.15,1.14,1.72,1.72,.58,.57,1.15,1.14,1.72,1.72,.58,.57,1.15,1.14,1.72,1.72,.58,.57,1.15,1.14,1.72,1.72,.58,.57,1.15,1.14,1.72,1.72,.58,.57,1.15,1.14,1.72,1.72,.58,.57,1.15,1.14,1.72,1.72,.58,.57,1.15,1.14,1.72,1.72,.58,.57,1.15,1.14,1.72,1.72,.58,.57,1.15,1.14,1.72,1.72,.58,.57,1.15,1.14,1.72,1.72,.58,.57,1.15,1.14,1.72,1.72,.58,.57,1.15,1.14,1.72,1.72,.58,.57,1.15,1.14,1.72,1.72,20.42,19.98,33.1,47.83,33.1,78.65v165.27c-.87-.02-1.75-.03-2.62-.03h-61.75V133.31ZM418.45,776.32h-18.79c-20.02,0-39.56,6.99-55.04,19.69l-219.34,180.05c-4.53,3.72-9.6,6.44-14.99,8.1,.27,.26,.54,.52,.81,.77,.54,.61,1.12,1.18,1.72,1.72,.54,.61,1.12,1.18,1.72,1.72,.54,.61,1.12,1.18,1.72,1.72,.54,.61,1.12,1.18,1.72,1.72,.54,.61,1.12,1.18,1.72,1.72,.54,.61,1.12,1.18,1.72,1.72,.54,.61,1.12,1.18,1.72,1.72,.54,.61,1.12,1.18,1.72,1.72,.54,.61,1.12,1.18,1.72,1.72,.54,.61,1.12,1.18,1.72,1.72,.54,.61,1.12,1.18,1.72,1.72,.54,.61,1.12,1.18,1.72,1.72,.54,.61,1.12,1.18,1.72,1.72,.54,.61,1.12,1.18,1.72,1.72,.54,.61,1.12,1.18,1.72,1.72,.54,.61,1.12,1.18,1.72,1.72,.54,.61,1.12,1.18,1.72,1.72,.54,.61,1.12,1.18,1.72,1.72,.54,.61,1.12,1.18,1.72,1.72,.54,.61,1.12,1.18,1.72,1.72,.54,.61,1.12,1.18,1.72,1.72,.54,.61,1.12,1.18,1.72,1.72,.54,.61,1.12,1.18,1.72,1.72,.54,.61,1.12,1.18,1.72,1.72,.54,.61,1.12,1.18,1.72,1.72,.54,.61,1.12,1.18,1.72,1.72,.54,.61,1.12,1.18,1.72,1.72,.54,.61,1.12,1.18,1.72,1.72,.54,.61,1.12,1.18,1.72,1.72,.54,.61,1.12,1.18,1.72,1.72,.54,.61,1.12,1.18,1.72,1.72,.54,.61,1.12,1.18,1.72,1.72,.54,.61,1.12,1.18,1.72,1.72,.54,.61,1.12,1.18,1.72,1.72,6.87,7.78,19.35,9.96,28.62,2.36l219.34-180.05c.36-.3,.73-.58,1.1-.87-.09-1.8-.14-3.61-.14-5.43v-83.04Zm318.7,186.2h-215.55c-3.45,0-6.88-.17-10.27-.5,.35,.36,.71,.72,1.07,1.07,.56,.58,1.14,1.15,1.72,1.72,.56,.58,1.14,1.15,1.72,1.72,.56,.58,1.14,1.15,1.72,1.72,.56,.58,1.14,1.15,1.72,1.72,.56,.58,1.14,1.15,1.72,1.72,.56,.58,1.14,1.15,1.72,1.72,.56,.58,1.14,1.15,1.72,1.72,.56,.58,1.14,1.15,1.72,1.72,.56,.58,1.14,1.15,1.72,1.72,.56,.58,1.14,1.15,1.72,1.72,.56,.58,1.14,1.15,1.72,1.72,.56,.58,1.14,1.15,1.72,1.72,.56,.58,1.14,1.15,1.72,1.72,.56,.58,1.14,1.15,1.72,1.72,.56,.58,1.14,1.15,1.72,1.72,.56,.58,1.14,1.15,1.72,1.72,.56,.58,1.14,1.15,1.72,1.72,.56,.58,1.14,1.15,1.72,1.72,.56,.58,1.14,1.15,1.72,1.72,.56,.58,1.14,1.15,1.72,1.72,.56,.58,1.14,1.15,1.72,1.72,.56,.58,1.14,1.15,1.72,1.72,.56,.58,1.14,1.15,1.72,1.72,14.52,14.96,34.83,24.28,57.32,24.28h215.55c4.1,0,8.17,.33,12.18,.95l-63.91-52.46c-10.09-8.3-22.85-12.86-35.91-12.86Zm297.73-442.86c-.56-.58-1.14-1.15-1.72-1.72-.56-.58-1.14-1.15-1.72-1.72-.56-.58-1.14-1.15-1.72-1.72-.56-.58-1.14-1.15-1.72-1.72-.56-.58-1.14-1.15-1.72-1.72-.56-.58-1.14-1.15-1.72-1.72-.56-.58-1.14-1.15-1.72-1.72-.56-.58-1.14-1.15-1.72-1.72-.56-.58-1.14-1.15-1.72-1.72-.56-.58-1.14-1.15-1.72-1.72-.56-.58-1.14-1.15-1.72-1.72-.56-.58-1.14-1.15-1.72-1.72-.56-.58-1.14-1.15-1.72-1.72-.56-.58-1.14-1.15-1.72-1.72-.56-.58-1.14-1.15-1.72-1.72-.56-.58-1.14-1.15-1.72-1.72-.56-.58-1.14-1.15-1.72-1.72-.56-.58-1.14-1.15-1.72-1.72-.56-.58-1.14-1.15-1.72-1.72-.56-.58-1.14-1.15-1.72-1.72-.56-.58-1.14-1.15-1.72-1.72-.56-.58-1.14-1.15-1.72-1.72-.56-.58-1.14-1.15-1.72-1.72-.35-.36-.71-.71-1.07-1.07,.33,3.39,.5,6.82,.5,10.28v587.19c0,19.83-15.17,36.18-34.54,38.08l74.46,61.13c9.76,8.01,24.45,1.07,24.45-11.56V576.98c0-22.49-9.31-42.8-24.28-57.32Z"/>
    <path class="cls-2" d="M928.1,418.28c.96,.49,1.91,1.01,2.85,1.54-.94-.53-1.89-1.04-2.85-1.54Z"/>
    <path class="cls-2" d="M924.67,416.62c.99,.45,1.98,.92,2.95,1.41-.97-.49-1.96-.96-2.95-1.41Z"/>
    <path class="cls-2" d="M934.68,422.07c.91,.58,1.8,1.18,2.68,1.79-.88-.62-1.77-1.21-2.68-1.79Z"/>
    <path class="cls-2" d="M898.36,409.77c1.22,.1,2.43,.23,3.64,.39-1.2-.16-2.42-.29-3.64-.39Z"/>
    <path class="cls-2" d="M931.45,420.11c.93,.54,1.85,1.09,2.76,1.67-.91-.57-1.83-1.13-2.76-1.67Z"/>
    <path class="cls-2" d="M906.22,410.82c1.16,.21,2.31,.46,3.46,.72-1.14-.26-2.3-.5-3.46-.72Z"/>
    <path class="cls-2" d="M910.06,411.62c1.13,.27,2.25,.56,3.36,.87-1.11-.31-2.23-.6-3.36-.87Z"/>
    <path class="cls-2" d="M913.83,412.61c1.09,.32,2.18,.66,3.25,1.02-1.07-.36-2.16-.7-3.25-1.02Z"/>
    <path class="cls-2" d="M902.32,410.2c1.19,.16,2.38,.35,3.55,.56-1.18-.21-2.36-.4-3.55-.56Z"/>
    <path class="cls-2" d="M921.14,415.12c1.03,.41,2.04,.84,3.05,1.29-1.01-.45-2.02-.88-3.05-1.29Z"/>
    <path class="cls-2" d="M917.52,413.78c1.06,.36,2.11,.75,3.15,1.15-1.04-.41-2.09-.79-3.15-1.15Z"/>
    <path class="cls-2" d="M937.81,424.19c.88,.62,1.75,1.26,2.6,1.92-.85-.66-1.72-1.3-2.6-1.92Z"/>
    <path class="cls-2" d="M443.37,875.53c-.01-.07-.03-.13-.04-.2,.01,.07,.03,.13,.04,.2Z"/>
    <path class="cls-2" d="M946.49,431.31c.81,.76,1.6,1.54,2.37,2.33-.77-.8-1.57-1.57-2.37-2.33Z"/>
    <path class="cls-2" d="M445.39,883.31c-.05-.17-.1-.34-.16-.52,.05,.17,.1,.34,.16,.52Z"/>
    <path class="cls-2" d="M444.28,879.45c-.03-.12-.06-.24-.09-.36,.03,.12,.06,.24,.09,.36Z"/>
    <path class="cls-2" d="M446.68,887.09c-.08-.22-.16-.45-.24-.67,.08,.22,.16,.45,.24,.67Z"/>
    <path class="cls-2" d="M940.82,426.43c.85,.67,1.7,1.35,2.52,2.06-.83-.7-1.67-1.39-2.52-2.06Z"/>
    <path class="cls-2" d="M894.36,409.53c1.24,.04,2.48,.11,3.71,.21-1.23-.1-2.46-.17-3.71-.21Z"/>
    <path class="cls-2" d="M943.72,428.81c.83,.72,1.65,1.44,2.45,2.19-.8-.75-1.62-1.48-2.45-2.19Z"/>
    <path class="cls-2" d="M442.65,871.54s0-.03,0-.05c0,.02,0,.03,0,.05Z"/>
    <path class="cls-2" d="M946.17,431c-.8-.75-1.62-1.48-2.45-2.19-.12-.11-.25-.22-.37-.32-.83-.7-1.67-1.39-2.52-2.06-.14-.11-.28-.22-.41-.33-.85-.66-1.72-1.3-2.6-1.92-.15-.11-.3-.22-.45-.32-.88-.62-1.77-1.21-2.68-1.79-.16-.1-.31-.2-.47-.3-.91-.57-1.83-1.13-2.76-1.67-.16-.09-.32-.19-.49-.28-.94-.53-1.89-1.05-2.85-1.54-.16-.08-.32-.17-.49-.25-.97-.49-1.96-.96-2.95-1.41-.16-.07-.32-.15-.48-.22-1.01-.45-2.02-.88-3.05-1.29-.16-.06-.31-.12-.47-.18-1.04-.41-2.09-.79-3.15-1.15-.15-.05-.29-.1-.44-.15-1.07-.36-2.16-.7-3.25-1.02-.14-.04-.28-.08-.41-.12-1.11-.31-2.23-.61-3.36-.87-.13-.03-.25-.06-.38-.09-1.14-.26-2.3-.5-3.46-.72-.12-.02-.23-.04-.35-.06-1.18-.21-2.36-.4-3.55-.56-.11-.01-.21-.03-.32-.04-1.2-.16-2.42-.29-3.64-.39-.1,0-.2-.01-.3-.02-1.23-.1-2.47-.17-3.71-.21-.91-.03-1.81-.07-2.72-.07h-61.75v233.54c0,35.61-13.86,69.09-39.04,94.26-25.18,25.18-58.66,39.05-94.26,39.05h-254.85v83.04c0,4.12,.31,8.18,.92,12.13,0,.02,0,.03,0,.05,.19,1.27,.42,2.53,.68,3.78,.01,.07,.03,.13,.04,.2,.25,1.2,.52,2.39,.82,3.57,.03,.12,.06,.24,.09,.36,.29,1.12,.61,2.24,.95,3.34,.05,.17,.1,.34,.16,.52,.33,1.05,.68,2.08,1.05,3.11,.08,.22,.16,.45,.24,.67,.36,.97,.74,1.93,1.14,2.88,.11,.27,.23,.55,.34,.82,.38,.89,.78,1.78,1.2,2.65,.15,.32,.3,.64,.46,.96,.4,.82,.82,1.63,1.24,2.43,.19,.36,.39,.73,.59,1.09,.41,.75,.84,1.48,1.27,2.22,.24,.4,.48,.8,.73,1.2,.42,.68,.85,1.35,1.29,2.02,.29,.43,.57,.86,.87,1.29,.43,.62,.86,1.23,1.31,1.84,.33,.45,.67,.9,1.01,1.35,.43,.57,.87,1.12,1.32,1.68,.37,.46,.76,.92,1.14,1.38,.35,.42,.71,.83,1.07,1.23,.5,.57,1.01,1.13,1.53,1.69,.25,.27,.51,.54,.77,.81,.64,.67,1.28,1.32,1.95,1.97,14.39,14.01,34.03,22.66,55.71,22.66h215.55c18.48,0,36.4,6.42,50.68,18.14l159.23,130.72c2.88,2.36,6.18,3.43,9.41,3.43,7.73,0,15.03-6.08,15.03-14.99V489.34c0-21.67-8.64-41.3-22.64-55.69-.77-.8-1.57-1.57-2.37-2.33-.11-.1-.22-.21-.33-.31Z"/>
    <path class="cls-3" d="M696.58,23.28H186.87c-60.76,0-110.03,49.26-110.03,110.04V942.16c0,6.36,2.71,11.68,6.81,15.32-.01-.01-.02-.02-.03-.04-4.07-3.64-6.77-8.94-6.77-15.28V133.31c0-60.77,49.26-110.03,110.03-110.03h509.7c30.82,0,58.68,12.68,78.65,33.1,.03,.03,.07,.07,.1,.1-19.98-20.48-47.88-33.2-78.75-33.2Z"/>
    <path class="cls-3" d="M696.58,23.28H186.88c-60.77,0-110.03,49.26-110.03,110.03V942.16c0,6.35,2.7,11.64,6.77,15.28,.01,.01,.02,.02,.03,.04,3.79,3.38,8.78,5.32,13.9,5.32,4.45,0,9-1.46,12.96-4.71l219.34-180.05c19.68-16.15,44.36-24.98,69.81-24.98h296.91c60.77,0,110.03-49.26,110.03-110.04V133.31c0-29.9-11.93-57-31.27-76.83-.03-.03-.07-.07-.1-.1-19.98-20.42-47.83-33.1-78.65-33.1Z"/>
    <path class="cls-1" d="M446.44,886.42c-.37-1.03-.72-2.06-1.05-3.11,.33,1.05,.68,2.08,1.05,3.11Z"/>
    <path class="cls-1" d="M443.33,875.33c-.25-1.25-.48-2.51-.68-3.78,.19,1.27,.42,2.53,.68,3.78Z"/>
    <path class="cls-1" d="M445.23,882.79c-.34-1.1-.66-2.22-.95-3.34,.29,1.12,.61,2.24,.95,3.34Z"/>
    <path class="cls-1" d="M934.21,421.77c.16,.1,.31,.2,.47,.3-.16-.1-.31-.2-.47-.3Z"/>
    <path class="cls-1" d="M930.96,419.82c.16,.09,.33,.19,.49,.28-.16-.09-.32-.19-.49-.28Z"/>
    <path class="cls-1" d="M940.41,426.11c.14,.11,.28,.22,.41,.33-.14-.11-.28-.22-.41-.33Z"/>
    <path class="cls-1" d="M994.29,479.07c-2.32-23.68-12.67-45.63-29.71-62.67-18.86-18.87-43.75-29.52-70.32-30.18-.87-.02-1.75-.03-2.62-.03h-61.75V133.31c0-8.32-.77-16.52-2.25-24.53-4.86-26.27-17.5-50.44-36.79-69.73C765.67,13.87,732.18,0,696.58,0H186.87c-35.6,0-69.08,13.87-94.25,39.05-25.19,25.18-39.05,58.65-39.05,94.26V942.16c0,12.23,4.85,23.54,13.67,31.85,8.25,7.77,19.01,12.06,30.32,12.06,4.38,0,8.66-.65,12.75-1.9,5.39-1.66,10.46-4.38,14.99-8.1l219.34-180.05c15.47-12.7,35.02-19.69,55.04-19.69h18.79v83.04c0,1.82,.05,3.63,.14,5.43,1.31,25.51,11.87,49.32,30.07,67.51,17.04,17.05,38.99,27.39,62.67,29.71,3.39,.33,6.82,.5,10.27,.5h215.55c13.06,0,25.82,4.56,35.91,12.86l63.91,52.46,95.32,78.24c6.84,5.61,15.43,8.71,24.18,8.71,1.27,0,2.53-.07,3.77-.19,19.36-1.9,34.54-18.25,34.54-38.08V489.34c0-3.45-.17-6.88-.5-10.28ZM399.66,753.05c-25.46,0-50.13,8.83-69.81,24.98l-219.34,180.05c-3.96,3.25-8.51,4.71-12.96,4.71-5.12,0-10.11-1.94-13.9-5.32-4.09-3.64-6.81-8.95-6.81-15.32V133.31c0-60.77,49.26-110.04,110.03-110.04h509.71c30.88,0,58.77,12.72,78.75,33.2,19.35,19.83,31.27,46.94,31.27,76.83v509.7c0,60.77-49.25,110.04-110.03,110.04H399.66Zm571.85,323.49c0,8.91-7.3,14.99-15.03,14.99-3.23,0-6.54-1.06-9.41-3.43l-159.23-130.72c-14.28-11.72-32.2-18.14-50.68-18.14h-215.55c-21.67,0-41.31-8.64-55.71-22.66-.66-.64-1.31-1.3-1.95-1.97-.26-.27-.52-.54-.77-.81-.52-.56-1.02-1.12-1.53-1.69-.36-.41-.72-.82-1.07-1.23-.38-.46-.77-.91-1.14-1.38-.45-.55-.89-1.11-1.32-1.68-.34-.45-.68-.89-1.01-1.35-.44-.61-.88-1.22-1.31-1.84-.29-.43-.58-.86-.87-1.29-.44-.67-.87-1.34-1.29-2.02-.25-.4-.49-.8-.73-1.2-.44-.73-.86-1.47-1.27-2.22-.2-.36-.39-.73-.59-1.09-.43-.8-.84-1.61-1.24-2.43-.16-.32-.31-.64-.46-.96-.41-.88-.82-1.76-1.2-2.65-.12-.27-.23-.55-.34-.82-.4-.95-.78-1.91-1.14-2.88-.08-.22-.16-.45-.24-.67-.37-1.03-.72-2.06-1.05-3.11-.05-.17-.1-.34-.16-.52-.34-1.1-.66-2.22-.95-3.34-.03-.12-.06-.24-.09-.36-.3-1.18-.58-2.37-.82-3.57-.01-.07-.03-.13-.04-.2-.25-1.25-.48-2.51-.68-3.78,0-.02,0-.03,0-.05-.6-3.96-.92-8.01-.92-12.13v-83.04h254.85c35.6,0,69.09-13.87,94.26-39.05,25.18-25.18,39.04-58.65,39.04-94.26v-233.54h61.75c.91,0,1.82,.04,2.72,.07,1.24,.04,2.48,.11,3.71,.21,.1,0,.2,.01,.3,.02,1.22,.1,2.43,.23,3.64,.39,.11,.01,.21,.03,.32,.04,1.19,.16,2.38,.35,3.55,.56,.12,.02,.23,.04,.35,.06,1.16,.21,2.31,.45,3.46,.72,.13,.03,.25,.06,.38,.09,1.13,.27,2.25,.56,3.36,.87,.14,.04,.28,.08,.41,.12,1.1,.32,2.18,.66,3.25,1.02,.15,.05,.29,.1,.44,.15,1.06,.36,2.11,.75,3.15,1.15,.16,.06,.31,.12,.47,.18,1.03,.41,2.04,.84,3.05,1.29,.16,.07,.32,.14,.48,.22,.99,.45,1.98,.92,2.95,1.41,.16,.08,.33,.17,.49,.25,.96,.49,1.91,1.01,2.85,1.54,.16,.09,.33,.19,.49,.28,.93,.54,1.85,1.09,2.76,1.67,.16,.1,.31,.2,.47,.3,.91,.58,1.8,1.18,2.68,1.79,.15,.11,.3,.21,.45,.32,.88,.62,1.75,1.26,2.6,1.92,.14,.11,.28,.22,.41,.33,.85,.67,1.7,1.35,2.52,2.06,.13,.11,.25,.22,.37,.32,.83,.72,1.65,1.44,2.45,2.19,.11,.1,.22,.21,.33,.31,.81,.76,1.6,1.54,2.37,2.33,14,14.39,22.64,34.03,22.64,55.69v587.19Z"/>
    <path class="cls-1" d="M927.62,418.03c.16,.08,.33,.17,.49,.25-.16-.08-.32-.17-.49-.25Z"/>
    <path class="cls-1" d="M946.17,431c.11,.1,.22,.21,.33,.31-.11-.1-.22-.21-.33-.31Z"/>
    <path class="cls-1" d="M943.34,428.49c.13,.11,.25,.22,.37,.32-.12-.11-.25-.22-.37-.32Z"/>
    <path class="cls-1" d="M937.36,423.86c.15,.11,.3,.21,.45,.32-.15-.11-.3-.22-.45-.32Z"/>
    <path class="cls-1" d="M898.07,409.75c.1,0,.2,.01,.3,.02-.1,0-.2-.01-.3-.02Z"/>
    <path class="cls-1" d="M905.87,410.76c.12,.02,.23,.04,.35,.06-.12-.02-.23-.04-.35-.06Z"/>
    <path class="cls-1" d="M924.19,416.4c.16,.07,.32,.14,.48,.22-.16-.07-.32-.15-.48-.22Z"/>
    <path class="cls-1" d="M444.19,879.1c-.3-1.18-.58-2.37-.82-3.57,.25,1.2,.52,2.39,.82,3.57Z"/>
    <path class="cls-1" d="M902,410.16c.11,.01,.21,.03,.32,.04-.11-.01-.21-.03-.32-.04Z"/>
    <path class="cls-1" d="M920.67,414.93c.16,.06,.31,.12,.47,.18-.16-.06-.31-.12-.47-.18Z"/>
    <path class="cls-1" d="M909.68,411.54c.13,.03,.25,.06,.38,.09-.13-.03-.25-.06-.38-.09Z"/>
    <path class="cls-1" d="M917.08,413.63c.15,.05,.29,.1,.44,.15-.15-.05-.29-.1-.44-.15Z"/>
    <path class="cls-1" d="M913.41,412.5c.14,.04,.28,.08,.41,.12-.14-.04-.28-.08-.41-.12Z"/>
  </g>
</svg>